# xmcd
# 
# Track frame offsets:
#     183
#     15793
#     31075
#     54320
#     74308
#     92020
#     107225
#     118830
#     139588
#     158875
# 
# Disc length: 2493
# 
# Revision: 109
# Processed by: cddbd v1.5.2PL0 Copyright (c) Steve Scherf et al.
# Submitted via: BonkEnc v1.0.5
# 
DISCID=7609bb0a
DTITLE=AC/DC - Higway to Hell
DYEAR=1979
DGENRE=Hard Rock
TTITLE0=Highway To Hell
TTITLE1=Girls Got Rhythm
TTITLE2=Walk All Over You
TTITLE3=Touch Too Much
TTITLE4=Beating Around The Bush
TTITLE5=Shot Down In Flames
TTITLE6=Get It Hot
TTITLE7=If You Want Blood (You've Got It)
TTITLE8=Love Hungry Man
TTITLE9=Night Prowler
EXTD=
EXTT0=
EXTT1=
EXTT2=
EXTT3=
EXTT4=
EXTT5=
EXTT6=
EXTT7=
EXTT8=
EXTT9=
PLAYORDER=
